/* XPM */
static char *da466bc05c034787e25a7c902e235225z1IFNFevcVYE3LLt[] = {
/* columns rows colors chars-per-pixel */
"72 64 237 2 ",
"   c #3E232F",
".  c #3D2531",
"X  c #322C36",
"o  c #36323C",
"O  c #39343F",
"+  c #41232E",
"@  c #4D262C",
"#  c #532B29",
"$  c #58262B",
"%  c #5C3129",
"&  c #5E3026",
"*  c #5D2932",
"=  c #5E3530",
"-  c #5D3937",
";  c #44333A",
":  c #64252C",
">  c #79242A",
",  c #623429",
"<  c #66372A",
"1  c #763D25",
"2  c #753E28",
"3  c #783F27",
"4  c #783F34",
"5  c #7E161F",
"6  c #774028",
"7  c #784028",
"8  c #754C38",
"9  c #66693F",
"0  c #3E3944",
"q  c #423C48",
"w  c #5A4D50",
"e  c #634349",
"r  c #67514F",
"t  c #755A54",
"y  c #537B47",
"u  c #537645",
"i  c #657A47",
"p  c #6B7249",
"a  c #716D75",
"s  c #645F69",
"d  c #8C151B",
"f  c #8C191D",
"g  c #8A1016",
"h  c #90171D",
"j  c #92181E",
"k  c #890E14",
"l  c #8E1C22",
"z  c #881F29",
"x  c #941B22",
"c  c #9D1E26",
"v  c #9B1720",
"b  c #A11E24",
"n  c #882825",
"m  c #9B252A",
"M  c #952428",
"N  c #963230",
"B  c #A32126",
"V  c #A92126",
"C  c #A52229",
"Z  c #AC242A",
"A  c #AB2A2C",
"S  c #B2252A",
"D  c #BB262A",
"F  c #BD2A2E",
"G  c #BA2428",
"H  c #BE2D31",
"J  c #B93237",
"K  c #A22F32",
"L  c #C1363A",
"P  c #81492F",
"I  c #824C33",
"U  c #8D5639",
"Y  c #915A3D",
"T  c #9E7638",
"R  c #C67A23",
"E  c #C3751C",
"W  c #C23D40",
"Q  c #8C5C48",
"!  c #945B4B",
"~  c #A7454B",
"^  c #A84C51",
"/  c #B0524D",
"(  c #8F614E",
")  c #946855",
"_  c #946855",
"`  c #9A705E",
"'  c #A6664B",
"]  c #A67457",
"[  c #AB7655",
"{  c #B67B5C",
"}  c #AF6D53",
"|  c #9B7868",
" . c #B87175",
".. c #AF716F",
"X. c #C74A4D",
"o. c #C44448",
"O. c #C64E52",
"+. c #C85659",
"@. c #C15144",
"#. c #C46B54",
"$. c #D4797B",
"%. c #CA6B6E",
"&. c #CC5E61",
"*. c #39934E",
"=. c #3D9651",
"-. c #5E8B4D",
";. c #4A8D50",
":. c #509A56",
">. c #638449",
",. c #4AA456",
"<. c #4EAC59",
"1. c #47A557",
"2. c #52AB59",
"3. c #56A957",
"4. c #73A14E",
"5. c #67A752",
"6. c #57A369",
"7. c #63B36D",
"8. c #749C65",
"9. c #B1943D",
"0. c #CB842E",
"q. c #CC8938",
"w. c #D18B35",
"e. c #CE9136",
"r. c #D5B039",
"t. c #E4B135",
"y. c #889653",
"u. c #8DAF4B",
"i. c #B4B141",
"p. c #A5AC44",
"a. c #9A926C",
"s. c #B78562",
"d. c #BC8D6E",
"f. c #BC8865",
"g. c #AB8878",
"h. c #B2966F",
"j. c #90B172",
"k. c #D3964E",
"l. c #C6926A",
"z. c #C9956D",
"x. c #C7956B",
"c. c #CB9972",
"v. c #C69776",
"b. c #C38966",
"n. c #D7A67B",
"m. c #D5AE7A",
"M. c #7F7E84",
"N. c #BF7F82",
"B. c #C57D81",
"V. c #D67E81",
"C. c #7FAA82",
"Z. c #969C9E",
"A. c #8B888E",
"S. c #B89B8F",
"D. c #86BC92",
"F. c #93A689",
"G. c #9AA4A4",
"H. c #A7A8AB",
"J. c #A9B4B4",
"K. c #B9B7BB",
"L. c #B7BABB",
"P. c #B6A5A4",
"I. c #9F9CA2",
"U. c #C78589",
"Y. c #D78588",
"T. c #C79C8D",
"R. c #DB8F91",
"E. c #CA9698",
"W. c #CC9B9D",
"Q. c #C99497",
"!. c #DC9D85",
"~. c #CDA989",
"^. c #D6A884",
"/. c #D2AA8B",
"(. c #DBAD8A",
"). c #D9AB86",
"_. c #DEB18C",
"`. c #DBB596",
"'. c #D2B092",
"]. c #E0B38A",
"[. c #E5B995",
"{. c #E6BC99",
"}. c #E8BE9B",
"|. c #E2B693",
" X c #E2AE88",
".X c #CE9EA1",
"XX c #E09FA1",
"oX c #DDB9A4",
"OX c #D9B6B7",
"+X c #CFAEAD",
"@X c #E1A5A7",
"#X c #E7BABB",
"$X c #E7B8B9",
"%X c #E3BEAE",
"&X c #BCC2BC",
"*X c #EAC19E",
"=X c #E3C29D",
"-X c #DFC3AE",
";X c #EAC4A4",
":X c #EBC7AA",
">X c #E9C8A9",
",X c #E1C8B4",
"<X c #EFD4BD",
"1X c #EBD2B3",
"2X c #BEBCC0",
"3X c #BAC4C5",
"4X c #C4CCCC",
"5X c #C3C5C5",
"6X c #D9CBC7",
"7X c #CBD3D3",
"8X c #C5D2D2",
"9X c #D3D5D5",
"0X c #D9DBDB",
"qX c #D0CFD1",
"wX c #E1C7C8",
"eX c #E7C9CA",
"rX c #EFDAC3",
"tX c #F0D9C5",
"yX c #EBDAD9",
"uX c #EAD2D3",
"iX c #CFE4D4",
"pX c #F2E4D9",
"aX c #E5E5DE",
"sX c #E9DFE1",
"dX c #DFE0E1",
"fX c #EDECEC",
"gX c #E9E2E2",
"hX c #F4ECEB",
"jX c #F3E9E3",
"kX c #E9F2EB",
"lX c #F5F1ED",
"zX c #F8F3EE",
"xX c #F5F4F4",
"cX c #F8F5F4",
"vX c #FAFAFA",
"bX c #F7F8F8",
"nX c #EFEFF0",
/* pixels */
"vXvXvXvXvXvXvXvXvXvXvXvXvXvXvXvXvXvXvXvXvXvXvXvXvXvXvXvXvXvXvXvXvXvXvXvXvXvXvXvXvXvXvXvXvXvXvXvXvXvXbXvXvXvXvXvXvXvXvXvXvXvXvXvXvXvXvXvXvXvXvXvX",
"vXvXvXvXvXvXvXvXvXvXvXvXvXvXvXvXvXvXvXvXvXvXvXcXvXvXvXvXvXvXvXvXvXvXvXvXvXvXvXvXvXvXvXvXvXvXvXvXvXvXvXbXcXcXcXcXvXvXvXvXvXvXvXvXcXvXvXvXvXvXvXvX",
"vXvXvXvXvXvXvXvXvXvXvXvXvXvXvXvXvXvXvXcXvXvXvXvXvXvXvXvXvXvXvXcXvXvXvXvXvXvXvXvXvXvXvXvXvXvXvXvXvXvXvX6X` ` ` g.xXvXvXvXvXvXvXvXvXvXvXvXvXvXvXvX",
"vXvXvXvXvXvXvXvXvXvXbXvXvXvXvXvXvXvXvXvXvXvXvXvXvXvXvXvXvXvXvXvXvXcXvXvXvXvXvXcXvXvXvXvXvXvXbXvXvXvXvXOX1 1 1 Q gXxXbXvXvXvXvXvXvXvXvXvXvXvXvXvX",
"vXvXvXvXvXvXvXbXvXvXvXvXvXvXvXvXvXvXvXvXvXvXvXvXvXvXvXvXvXvXvXvXvXvXvXvXvXvXvXvXvXvXvXvXvXvXvXvXvXvXvXgX+Xa.7 7 ) g.xXvXvXvXbXvXvXvXvXvXbXvXvXvX",
"vXvXvXvXvXvXvXvXvXcXvXvXvXvXvXvXvXvXvXvXvXvXvXvXvXvXvXvXvXvXvXvXvXvXvXvXvXvXvXvXvXvXxXlXxXlXxXlXxXxXlXlXbX+X7 1 1 Q fXvXvXvXvXvXvXvXvXvXvXvXvXvX",
"vXvXvXvXbXvXvXvXvXvXvXvXvXvXvXvXvXvXvXvXvXvXvXvXvXvXvXvXvXvXvXvXvXvXvXvXvXvXvXvXvXlX| ( ) ) ) ) ) ) ) ) _ Q 2 7 1 ( hXvXvXvXvXvXvXvXvXvXvXvXvXvX",
"vXvXbXvXvXvXvXvXvXvXvXvXvXvXbXvXvXvXvXvXvXvXvXvXvXcXvXvXvXvXvXvXvXvXvXvXvXcXxXhXlXsXQ 1 1 1 1 3 1 6 1 1 1 2 6 7 1 ( hXvXbXvXvXvXvXvXvXvXvXvXvXvX",
"vXvXvXvXvXvXvXvXvXvXvXvXvXvXvXvXvXvXvXvXvXvXvXvXvXvXvXvXvXvXvXvXvXcXvXvXvXvXS.Q ( ( 7 6 6 6 6 6 7 3 3 3 7 6 3 3 , t fXvXvXvXvXvXvXvXvXvXvXvXvXvX",
"vXcXvXvXvXvXvXvXvXvXvXvXvXhXhXcXvXvXvXvXvXvXvXvXvXvXvXvXvXvXvXvXvXvXvXvXlXjXg.1 1 1 6 6 7 7 6 6 7 7 7 2 7 3 3 3 $ r fXvXvXvXvXvXvXvXvXvXvXvXvXvX",
"vXvXvXvXvXvXvXvXvXvXvXvXzX%.X.#XvXvXvXvXvXvXvXvXvXvXvXvXvXvXvXvXvXvXvXvXS.Q 8 6 6 6 6 6 7 7 7 7 < % % , , , , e P.,XxXvXvXvXvXvXvXvXvXvXvXvXvXvX",
"vXvXvXvXvXvXvXvXvXvXvXvXhXo.L R.eXhXvXvXvXvXvXvXvXvXvXvXvXvXvXvXvXvXvXvXg.1 6 6 6 6 6 6 2 2 2 2 % # # # # # - t jXvXbXvXvXvXvXvXvXvXvXvXvXcXvXvX",
"vXvXvXvXvXvXvXvXvXvXvXvXzXO.L L L @XvXvXvXvXvXvXvXvXvXvXvXvXvXvXvXvXvXvXg.2 6 6 % # % # % # % # # # # @ @ e 6XaXbXvXvXvXvXvXvXvXvXvXcXvXvXvXvXvX",
"vXvXvXvXvXvXvXvXvXeXeX#X$Xo.G G L Y.uXzXvXvXvXvXvXvXvXvXvXvXvXvXvXvXvXvXg.3 N 3 < = = = = % = % = = = % % t fXvXbXvXvXvXvXvXvXvXvXvXvXvXvXvXvXvX",
"vXvXvXvXvXvXvXvXcX&.D L L D L G D L W sXvXvXvXvXvXvXvXcXvXvXvXvXvXvXvXvXT.! ' ' s.s.s.s.f.s.s.s.s.s.f.s.s.v.nXvXvXvXvXvXvXvXvXvXvXvXvXvXvXvXvXvX",
"vXvXvXvXvXvXvXeX$XX.L D G G L D D L W @XeXcXvXvXvXvXvXvXvXvXvXvXvXvXvXvXT.' ' ' l.c.c.c.c.c.c.c.c.c.c.c.z./.lXvXvXvXvXvXbXvXvXvXvXvXvXvXvXvXvXvX",
"vXvXvXvXvXvXvX&.F H F F F F F F F F F H W sXvXvXvXvXvXvXvXvXvXvXvXvXvXvXQ.' ' } ).{.[.{.[.[.[.|.[.[.[.[.[.}.cXvXvXvXvXvXvXvXvXvXvXvXbXvXvXvXvXvX",
"vXvXvXvXvXuX$XX.F F F F F F F F F F F F W @X#X#X$X$XeXcXvXvXvXvXvXvXvXvXT.' } b.|.}.'.~.{.}.}.}.}.{./.'.}.:XcXvXvXvXvXvXvXvXvXvXvXvXvXvXvXvXvXcX",
"vXvXvXvXvXY.L G H H F H F H F F F F F F G L L L L D W pXvXvXvXvXvXvXvXvXT.' v.}.{.{.t q ~.}.}.}.*X'.; t {.:XcXvXvXvXvXvXvXvXvXvXvXvXvXvXvXvXvXvX",
"vXvXcXvXvXV.G G S F S F D F F F F F F F G G G L D L W XX$X$XeXvXvXvXhXpXT.' n.*X}.}.r X ~.}.}.}.*X/.X w {.:XcXvXvXvXvXvXvXvXvXvXvXvXvXvXvXvXvXvX",
"vXvXvXvXvXB.b C c c C C C D F F G L D L L D L G G D L L L G $.vXvXvXrX*X).l.(.}.}.{.r X ~.}.}.}.*X~.X r [.:XcXvXvXvXvXvXbXvXvXvXvXvXvXvXvXvXvXvX",
"vXvXvX$XB./ c b b c c c c b b b b b S b V G L D L G G D G L W $.Y.Y.!.(.c.[ c._.{.}.g.| |.}.}.}.*X`.a.g.}.}.tXtXcXvXvXvXvXvXvXvXvXvXvXvXvXvXvXvX",
"vXvXvXU.v c C c c c c b c l g g g v b c b G G D L G G G G L G G D D #.z.' 6 [ z.[.}.;X;X;X}.}.}.*X*X*X*X}.}.{.:XcXvXvXvXvXbXvXvXcXvXvXvXvXvXvXvX",
"vXvXvXU.c c c x x x x b Z c b b b b S b S G L D G G L L G G L G F F @.#.' 3 [ c.|.}.].(.v.d.d.d.d.d.d.x./.|.{.:XcXvXvXvXvXvXvXvXvXvXvXvXvXvXvXvX",
"vXvXvXU.v b c l d g d b G D L D L G F L L D L D D D L D D L G G F F F F K 7 [ z.[.*Xn.l.U 1 1 1 1 1 1 P f.n.}.:XcXvXvXvXvXvXvXvXvXvXvXvXvXvXvXvX",
"vXvXvXU.c c x b b b b S L F G G S S S V Z b b V V V b G G G G L F F D S N 7 [ z.m.).s.[ [ ] ] ] ] ] ] ] ] { ).`.zXvXvXvXvXvXvXvXvXvXvXvXvXvXvXvX",
"vXvXvXU.v v d S L L L D L D H Z c b b v x d d g g h k g b L L L F F S m N 7 [ x.x.x.! I (.;X*X;X*X*X;X_.P I b.^.zXvXvXvXbXvXvXvXvXvXvXvXvXvXvXcX",
"vXvXvX#XB./ b S G b S S S Z Z b c x h x v b b b b b b b V b b b V V B x n 7 Y ' ' [ I 7 v.).d.s.s.d.).c.7 7 Y | hXvXvXvXvXvXvXvXvXvXvXcXvXvXvXvX",
"vXvXvXvXvXR.D Z v v c b C m c c c d h g v G L G L D F F S g d d d h k k n 1 1 1 1 6 7 7 [ b.P 3 2 I f.[ 6 6 1 Q hXvXvXvXvXvXvXvXvXvXvXvXvXvXvXvX",
"vXvXvXvXvXU.Z C c b c c c c c x x b b b b D F F L D F F G G b g h g b V P , 1 3 7 7 7 7 U Y 7 6 7 7 Y U 6 2 < 7 %.Y.hXvXvXvXvXvXvXvXvXvXvXvXvXvX",
"vXvXvXvXvXU.c c c c b c c c c l h F L F H H F F G L D F F H b l g h V L > # < 3 1 6 6 6 1 6 6 6 7 7 3 1 6 1 # : S X.hXvXvXvXvXvXvXvXvXvXvXvXvXvX",
"vXvXvXvXvXB.d v c c c x x b S S b Z b b b Z C C b b b b v v v d b Z G L < + # , % , 1 6 6 6 6 7 6 6 7 1 , % # * C S &.XXvXvXvXvXvXvXvXvXvXvXvXvX",
"vXvXvXvXcXN.l c c c c h h b H H H C c c c b c c c c c h d l M m Z D G L 5   + # # # 2 1 1 2 2 3 2 7 6 2 # # # : M b G $.vXbXzXzXcXcXvXvXvXvXvXvX",
"vXvXvXvXvXyXOX~ c v l Z S F D S C C c c c j l l x h h k ^ OXoX(./ B V L x z $   @ # % % % % % & % % % % # @ + $ c S D V.vXtX;X;X;XtXvXvXvXvXvXvX",
"vXvXvXvXvXvXcX/ c x h S H D H b c c c c c d d d d l l h ..zXrX}.#.m A L S b :   @ # @ @ # # # @ # # @ # # @   : c V D $.vX<X{.}.{.tXvXvXvXvXvXvX",
"vXvXvXvXvXvXcX+.S S S Z C C V v l l h h h d d f m +XwXwX%X}.;X}.a.-.9 S Z S m 5 @ + +       + +   + + + + @ > n h b D $.vX<X{.}.{.tXvXvXvXvXvXvX",
"vXvXvXvXvXhXuXO.G H H b c c c l g x l M M x l l ~ gXvXcXtX}.[.|.j.<.i M A D Z M @       + @ .   . . + . . @ M b j B L $.zX<X{.}.[.tXbXvXvXvXvXvX",
"vXvXvXvXvXU.K Z b V b c l d d d d U.eX6XwXeXwXwX6XxXjX}.}.}.^.z.h.h.y.y r V b c n n p ;.T T >.;.;.;.;.y > z f m } %.n._.;X}.}. Xc.,XvXvXvXvXvXvX",
"vXvXvXvXvXU.v c b c b x d l M l M OXvXvXvXvXvXvXvXzXpX}.[.|.n.l.l.z.a.1.p M m m A m >.3.9.q.4.5.3.<.<.:.> f f N l.n.*X}.}.}.}.).z.,XvXvXvXvXvXvX",
"vXvXvXvXvXU.c c c x l d d U.uXuXeXhXvXvXvXvXvXvXjX:X}.}.).x.l.l.l.l.'.iXC.y -.-.-.-.p.i.e.q.e.q.4.<.<.,.y i { #.l.z.c._.}.|.c.`.pXhXvXvXvXcXvXvX",
"vXvXvXsXuX .v v c x d h x +XvXvXvXvXvXvXvXvXvXzXtX*X}.|.n.l.x.c.c.c.oXvXD.*.1.<.<.<.i.t.e.e.0.w.4.<.<.<.1.8.c.c.l.x.l.).}.(.c.-XvXvXvXvXvXvXvXvX",
"vXvXvXU.l l h l d f d S.uXhXvXvXvXvXvXvXvXvXjX;X*X*X_.z.l.l.'.jXjXjXhXvXD.*.,.,.<.<.i.t.t.r.e.w.4.<.<.7.7XaXjX,Xl.l.l.z.c.`.pXlXvXvXvXvXvXvXvXvX",
"vXvXvXW.~ K g d d K ~ OXvXvXvXvXbX1X>X=X;XpXrX}.*X{.`.^.~./.,XvXvXvXvXvXD.*.,.<.<.<.u.p.r.t.9.9.5.<.<.7.kXvXvXpX/././././.,XvXvXvXvXvXvXvXvXvXvX",
"vXvXvXcXxX .k g g Q.xXbXvXvXvXvXlXk.0.E q.{.}.}.{.*X;XzXcXcXcXvXvXvXvXvXD.*.1.<.<.<.<.<.i.t.5.3.2.,.=.6.kXvXvXvXcXcXcXcXcXvXvXvXvXbXvXvXvXvXvXvX",
"vXvXvXvXvXW.^ ^ ^ OXvXvXvXvXvXvXzXm.k.0.q.n. X*X=X{.;XcXvXvXvXvXvXvXvXvXD.=.1.,.<.<.<.<.u.u.3.<.<.<.=.6.kXvXvXvXvXvXvXvXvXvXvXvXvXvXvXvXvXvXvXvX",
"vXvXbXvXvXbXxXnXzXbXvXvXvXvXvXvXvXvXrXe.0.R q.*X*X*X;XzXvXvXvXvXvXvXvXvXD.=.1.<.<.<.<.<.<.3.<.<.<.,.=.6.kXvXvXvXvXvXvXvXvXvXvXvXvXvXvXvXvXvXvXvX",
"vXvXvXvXvXvXvXvXvXvXvXvXvXvXvXvXvXaX6X~.c.0.q.n._.>X<XxXvXvXvXvXvXvXvXvXF.u u -.>.-.3.3.<.<.<.<.3.,.u i Q.@XxXvXvXvXvXbXvXvXvXvXvXvXvXvXvXvXvXvX",
"vXvXvXvXvXvXvXvXvXvXvXvXbXvXvXvXxX&X&X7X4Xk.0.R q.pXvXvXvXvXvXvXvXvXvXvX .d d f f n :.<.<.<.<.<.<.:.n l G X.hXvXvXvXvXvXvXvXvXvXvXvXvXvXvXvXbXvX",
"vXvXvXvXvXvXvXvXvXvXvXvXvXvXvXdX9X3X3X3X3X).k.0.e.jXvXvXvXvXvXvXvXvX#XR.~ h x l h l i >.>.i >.y i i n j S W Y.@XxXvXvXvXvXvXcXvXvXvXvXvXvXvXvXvX",
"vXbXvXvXvXvXvXvXvXvXcXvXvXvXcX2X2X8X8XG.H.nX<Xw.k.jXvXvXvXvXvXvXvXvXV.G S c c b m c h d d f d f f f c b c b S X.hXvXvXvXvXvXvXvXbXvXvXvXvXvXvXvX",
"vXvXvXvXvXvXvXvXvXvXvXvXbXdX9X4X3X3X3X2X3XxXpXm.].zXvXvXvXvXvXvX#XR.O.S b b c c v c h d f d d d d h c c c c Z J V.XXcXvXvXvXvXvXvXvXvXvXvXvXvXvX",
"vXvXvXvXvXvXvXvXvXvXvXcXxX2XK.8X8XJ.G.kXvXvXbXvXvXvXvXvXvXvXvXvXV.G Z C b b c b h g d g d g d d g d c c c m c b D O.hXvXvXvXvXvXvXvXvXvXbXvXvXvX",
"vXvXvXvXvXvXbXvXvXvXcX7X5X4X4X3XJ.4X0XxXvXvXvXvXvXvXvXvXvXvXvXvXB.b m c c x x l  .E.E.E.W.E.E.W.E. .x x x v b b b o.hXvXvXvXvXvXvXvXvXvXvXvXvXvX",
"vXvXvXvXvXvXvXvXvXbXxX5XK.4X8XJ.Z.0XvXvXvXvXvXvXvXvXvXvXvXvXxXlX%.c C b x d d d +XvXvXvXvXvXvXvXvXOXf h d h m c c ~ sXxXvXvXvXvXvXvXvXbXvXvXvXvX",
"vXvXvXvXvXvXvXvXbXqX4X4X3X3XJ.4X9XfXvXvXvXvXvXvXvXvXvXvXvXvXE.~ K c c l / .X.X.XyXvXvXvXbXvXvXvXvXgX.X.X.X .x v c C ~ U.vXvXcXvXvXvXvXvXvXvXbXvX",
"vXvXcXvXvXvXvXvXbX5XL.8X8XJ.Z.0XvXvXvXvXvXvXvXvXvXvXvXvXlXnX .g x c x k  .vXvXvXvXvXvXvXvXvXvXvXvXvXvXvXvXOXd h c c k ..nXxXvXvXvXvXvXvXvXbXvXvX",
"vXvXvXvXvXvXvXvXcXL.H.J.J.4X9XkXvXvXvXvXvXvXvXvXvXvXbXbXJ.s e $ * * ( .XwXbXvXbXvXvXvXvXvXvXvXvXvXvXvXvXvXsX+X..* * + q s G.vXvXvXvXvXvXvXvXvXvX",
"vXvXvXbXbXvXvXvXxXJ.Z.Z.Z.0XvXvXvXbXvXbXbXvXbXvXbXbXbXbXZ.q 0 o 0 X M.vXxXbXvXbXvXvXvXbXvXbXvXbXvXbXbXbXvXvXvXK.0 0 X 0 q N.nXnXvXvXvXbXbXvXvXvX",
"vXvXvXxXfXfXfXfXfX9X7X7X7XgXkXnXfXfXnXfXfXfXfXfXnXnXkXnXA.0 0 X X X M.fXfXfXnXfXfXfXfXfXfXfXfXfXfXnXfXfXnXnXxXH.X X 0 0 0 w s I.fXfXfXfXnXxXvXvX",
"vXvXvXnXfXfXfXfXfXfXfXfXfXfXfXfXfXfXfXkXfXfXfXfXfXkXdXkXN.X o O 0 X M.dXfXfXfXfXfXfXfXfXfXfXfXfXfXfXfXfXfXfXnXH.0 X X 0 0 q 0 A.fXfXfXfXfXxXvXvX",
"vXvXvXbXxXxXxXxXxXxXxXxXxXxXcXxXxXxXxXxXxXxXxXxXxXxXxXxX9XK.K.2X2XK.qXxXxXxXxXxXxXxXxXxXxXxXxXxXxXxXcXcXcXbXcXdXK.2XK.K.2X2X2X7XcXcXxXxXxXbXvXvX",
"bXvXvXvXvXvXvXvXvXvXvXvXbXvXvXvXvXvXvXvXvXvXvXvXvXvXvXvXvXvXvXvXvXvXvXbXvXvXvXvXvXvXvXvXvXvXvXvXbXvXvXvXvXvXvXvXvXvXvXvXbXbXvXvXvXvXvXvXvXvXvXvX",
"vXvXvXvXvXvXvXvXvXvXvXvXvXvXvXvXvXvXvXvXvXvXvXvXvXvXvXvXvXvXvXvXvXvXvXvXvXvXvXvXvXvXvXvXvXvXvXvXbXvXvXvXvXvXvXvXvXvXvXvXvXvXvXvXvXvXvXvXvXvXbXvX",
"vXvXvXvXvXvXvXvXvXvXvXvXvXbXvXvXvXvXvXvXvXvXvXvXvXvXvXvXvXvXvXvXvXvXvXvXvXvXvXvXvXvXvXvXvXvXvXvXvXvXvXvXvXvXvXvXvXvXvXvXvXvXvXvXvXbXvXvXvXvXvXvX"
};
