/* XPM */
static char *_47d2870fcb94555d84118c0e68d66e6sjwiltXs8vtdvY32[] = {
/* columns rows colors chars-per-pixel */
"64 64 207 2 ",
"   c #231E2B",
".  c #3B2130",
"X  c #372E36",
"o  c #36313B",
"O  c #39343E",
"+  c #40232F",
"@  c #4F242D",
"#  c #522B29",
"$  c #5A2F29",
"%  c #59272F",
"&  c #5D3229",
"*  c #5E3530",
"=  c #5F393C",
"-  c #5E2932",
";  c #65262B",
":  c #7A242B",
">  c #613329",
",  c #693829",
"<  c #733E28",
"1  c #6A3231",
"2  c #7C171F",
"3  c #784028",
"4  c #7D4632",
"5  c #725839",
"6  c #6C5035",
"7  c #3C3741",
"8  c #47414D",
"9  c #5A555E",
"0  c #744646",
"q  c #4F7C48",
"w  c #687447",
"e  c #5D5961",
"r  c #75717A",
"t  c #695B65",
"y  c #8C151B",
"u  c #90171D",
"i  c #93181F",
"p  c #8B1F28",
"a  c #941A21",
"s  c #9D1F26",
"d  c #A01D23",
"f  c #882B24",
"g  c #96282B",
"h  c #972C31",
"j  c #9C3637",
"k  c #903029",
"l  c #A62126",
"z  c #A92226",
"x  c #A32129",
"c  c #AB2329",
"v  c #B2262B",
"b  c #B7282D",
"n  c #BD2A2E",
"m  c #A32E33",
"M  c #A73537",
"N  c #C2393C",
"B  c #844A33",
"V  c #8B553A",
"C  c #BF433D",
"Z  c #B17433",
"A  c #C2761E",
"S  c #C57A23",
"D  c #AC3C41",
"F  c #C33F42",
"G  c #8B5A46",
"H  c #A24348",
"J  c #AF494D",
"K  c #AD4D4B",
"L  c #9B6647",
"P  c #926552",
"I  c #8F624E",
"U  c #A5634A",
"Y  c #A26A4B",
"T  c #A67253",
"R  c #AB7756",
"E  c #B6785A",
"W  c #AD6E52",
"Q  c #997E6E",
"!  c #8B7271",
"~  c #B9666A",
"^  c #B87174",
"/  c #A4756C",
"(  c #AF5E62",
")  c #CA5659",
"_  c #C54E4C",
"`  c #D16B6D",
"'  c #C4777C",
"]  c #D17678",
"[  c #C36953",
"{  c #3D9451",
"}  c #5C8D4D",
"|  c #4B8F51",
" . c #519550",
".. c #77934C",
"X. c #4AA557",
"o. c #4FAB59",
"O. c #59A857",
"+. c #68AB53",
"@. c #7BAE4F",
"#. c #5EAD60",
"$. c #5D9E65",
"%. c #B0923D",
"&. c #CF8934",
"*. c #C88A37",
"=. c #CD8E33",
"-. c #D2AF3A",
";. c #E2B436",
":. c #B7835E",
">. c #A7B144",
",. c #9D8B6F",
"<. c #BB8964",
"1. c #BB8B6C",
"2. c #A98879",
"3. c #B09669",
"4. c #98A547",
"5. c #D1914C",
"6. c #D69A57",
"7. c #D8A05C",
"8. c #C7936B",
"9. c #CA9770",
"0. c #CD9B74",
"q. c #C99B78",
"w. c #CC9571",
"e. c #CDA178",
"r. c #D2A27D",
"t. c #DCAA72",
"y. c #7F7B81",
"u. c #827E85",
"i. c #D67D80",
"p. c #89BD95",
"a. c #8AAD89",
"s. c #BDA296",
"d. c #97A1A1",
"f. c #9CA6A6",
"g. c #A5A6A9",
"h. c #ABB5B5",
"j. c #B8BABB",
"k. c #BBACAB",
"l. c #A39290",
"z. c #C19E85",
"x. c #C89E8C",
"c. c #D99984",
"v. c #DD9698",
"b. c #C98C8F",
"n. c #C8A486",
"m. c #D1A888",
"M. c #DBAD89",
"N. c #D5A784",
"B. c #DEB18D",
"V. c #C8A091",
"C. c #D7B193",
"Z. c #D0B38F",
"A. c #E0AA83",
"S. c #E1B691",
"D. c #E5BA96",
"F. c #E5BC9A",
"G. c #E8BE9B",
"H. c #E0B589",
"J. c #CE9FA1",
"K. c #DF9EA0",
"L. c #D3A8AA",
"P. c #D4B9B6",
"I. c #DAB9A0",
"U. c #E2A7A8",
"Y. c #E1A3A4",
"T. c #E8BCBD",
"R. c #AED1B6",
"E. c #B4D9B9",
"W. c #9FCEA5",
"Q. c #C6C4B4",
"!. c #E9C6A9",
"~. c #E5CAB4",
"^. c #EBD4BA",
"/. c #E5C49B",
"(. c #BFBEC1",
"). c #C0BFC2",
"_. c #BCC4C4",
"`. c #BBC7C7",
"'. c #C3CBCB",
"]. c #C6C7C8",
"[. c #C6D3D3",
"{. c #D3D5D5",
"}. c #D9D8D8",
"|. c #D2CDCB",
" X c #E4CCCE",
".X c #E5C4C5",
"XX c #EDD8C7",
"oX c #F1DDCB",
"OX c #E8CED0",
"+X c #EDD1D2",
"@X c #E7DAD2",
"#X c #F1DADA",
"$X c #D7E6D9",
"%X c #F1E6DD",
"&X c #F3E2D4",
"*X c #EDE5DD",
"=X c #DFDFE0",
"-X c #E0DFE1",
";X c #EBEBEB",
":X c #EAE6E5",
">X c #F6EEE7",
",X c #F3EBEB",
"<X c #F4E4E5",
"1X c #F7F1ED",
"2X c #F6F6F6",
"3X c #F8F4F3",
"4X c gray98",
/* pixels */
"4X4X4X4X4X4X4X4X4X4X4X4X4X4X4X4X4X4X4X4X4X4X4X4X4X4X4X4X4X4X4X4X4X4X4X4X4X4X4X4X4X4X4X4X4X4X4X4X4X4X4X4X4X4X4X4X4X4X4X4X4X4X4X4X",
"4X4X4X4X4X4X4X4X4X4X4X4X4X4X4X4X4X4X4X4X4X4X4X4X4X4X4X4X4X4X4X4X4X4X4X4X4X4X4X4X4X4X4X4X4X4X4X4X4X4X4X4X4X4X4X4X4X4X4X4X4X4X4X4X",
"4X4X4X4X4X4X4X4X4X4X4X4X4X4X4X4X4X4X4X4X4X4X4X4X4X4X4X4X4X4X4X4X4X4X4X4X4X4X4X4X4X4X4X4X4X4X,.P P 2.4X4X4X4X4X4X4X4X4X4X4X4X4X4X",
"4X4X4X4X4X4X4X4X4X4X4X4X4X4X4X4X4X4X4X4X4X4X4X4X4X4X4X4X4X4X4X4X4X4X4X4X4X4X4X4X4X4X4X4X4X4XP < < P 4X4X4X4X4X4X4X4X4X4X4X4X4X4X",
"4X4X4X4X4X4X4X4X4X4X4X4X4X4X4X4X4X4X4X4X4X4X4X4X4X4X4X4X4X4X4X4X4X4X4X4X4X4X4X4X4X4X4X4X4X4XP.z.B 4 P s.4X4X4X4X4X4X4X4X4X4X4X4X",
"4X4X4X4X4X4X4X4X4X4X4X4X4X4X4X4X4X4X4X4X4X4X4X4X4X4X4X4X4X4X4X4X4X4X4X4X4X4X4X4X4X4X4X4X4X4X4X XG 3 f l.4X4X4X4X4X4X4X4X4X4X4X4X",
"4X4X4X4X4X4X4X4X4X4X4X4X4X4X4X4X4X4X4X4X4X4X4X4X4X4X4X4X4X4X4X4X4X4X4X4X4XQ.P P P P P P P P P I 3 3 3 2.4X4X4X4X4X4X4X4X4X4X4X4X",
"4X4X4X4X4X4X4X4X4X4X4X4X4X4X4X4X4X4X4X4X4X4X4X4X4X4X4X4X4X4X4X4X4X4X,X,X<XV.< < 3 3 3 3 3 3 3 3 < < 3 2.4X4X4X4X4X4X4X4X4X4X4X4X",
"4X4X4X4X4X4X4X4X4X4X4X4X4X4X4X4X4X4X4X4X4X4X4X4X4X4X4X4X4X4X4X4X4X4X2.P P G < 3 3 3 3 3 3 3 3 3 < < $ ,.4X4X4X4X4X4X4X4X4X4X4X4X",
"4X4X4X4X4X4X4X4X4X4X4X3X<X3X4X4X4X4X4X4X4X4X4X4X4X4X4X4X4X4X4X4X,X:XI < 3 3 3 3 3 < 3 3 < < 3 3 < < # Q 4X4X4X4X4X4X4X4X4X4X4X4X",
"4X4X4X4X4X4X4X4X4X4X4X.X) v.4X4X4X4X4X4X4X4X4X4X4X4X4X4X4X4X4X4Xs.P 4 3 3 3 3 3 < < < , > > > > > 0 k.|.4X4X4X4X4X4X4X4X4X4X4X4X",
"4X4X4X4X4X4X4X4X4X4X4XT.N ` +X,X4X4X4X4X4X4X4X4X4X4X4X4X4X4X4X4X2.3 3 3 < < < < < < < $ # # # # = ! 4X4X4X4X4X4X4X4X4X4X4X4X4X4X",
"4X4X4X4X4X4X4X4X4X3X4XT.n n n K.4X4X4X4X4X4X4X4X4X4X4X4X4X4X4X4X2.3 < < & $ $ $ > $ $ # # # # # k.@X4X4X4X4X4X4X4X4X4X4X4X4X4X4X",
"4X4X4X4X4X4X4X4X#X+X+Xv.n n n v.+X3X4X4X4X4X4X4X4X4X4X4X4X4X4X4X2.B B 3 * > * * * > * * * * * * {.4X4X4X4X4X4X4X4X4X4X4X4X4X4X4X",
"4X4X4X4X4X4X4X4X) N n n n n n n _ <X4X4X4X4X4X4X4X4X4X4X4X4X4X4XV.U U Y <.<.<.<.<.<.<.<.<.<.<.<.*X4X4X4X4X4X4X4X4X4X4X4X4X4X4X4X",
"4X4X4X4X4X4X#X.X_ n n n n n n n N T.#X4X4X4X4X4X4X4X4X4X4X4X4X4XV.U U W 9.9.9.9.9.9.9.9.9.9.9.9.%X4X4X4X4X4X4X4X4X4X4X4X4X4X4X4X",
"4X4X4X4X4X4Xi.N n n n n n n n n n n ) 4X4X4X4X4X4X4X4X4X4X4X4X4XV.U U E D.D.D.D.D.D.D.D.D.D.D.D.>X4X4X4X4X4X4X4X4X4X4X4X4X4X4X4X",
"4X4X4X4X3X+X` n n n n n n n n n n n _ +X+X+X+X#X4X4X4X4X4X4X4X4XV.U W 1.G.F.M.F.G.G.G.G.C.C.F.G.>X4X4X4X4X4X4X4X4X4X4X4X4X4X4X4X",
"4X4X4X4X.Xn N b n n n n n n n n n n n n n n n F <X4X4X3X4X4X4X4XV.U M.G.G.n.X z.G.G.G.G.2.X x.F.>X4X4X4X4X4X4X4X4X4X4X4X4X4X4X4X",
"4X4X4X4X+Xb b v b b b n n n n n n n n n n n n N v.U.U.#X4X4X1X#XV.W M.G.F.z.  z.G.G.G.G.Q   z.G.>X4X4X4X4X4X4X4X4X4X4X4X4X4X4X4X",
"4X4X2X2X+Xd x x x x s c n n n n n n n n n n n n n n n K.4X4X&XG.M.8.B.G.G.n.  z.G.G.G.G.Q   z.G.>X4X4X4X4X4X4X4X4X4X4X4X4X4X4X4X",
"4X4X4Xi.) s s s d s s s d d d d c c v n n n N n n n n ) i.] r.M.9.T c.M.G.C.Q C.G.G.G.G.n.,.C.G.^.oX4X4X4X4X4X4X4X4X4X4X4X4X4X4X",
"4X4X4Xs s s s x d s d s a y a a d d d n n n b n n n n n N N _ 8.T 3 :.0.G.G.G.G.G.G.G.G.G.G.G.G.G.~.4X4X4X4X4X4X4X4X4X4X4X4X4X4X",
"4X4X4Xs s x a a a a c d s s d d v d z n n n n n n n n n b b N ) U 3 :.0.G.F.B.q.1.1.1.1.1.1.r.B.G.!.4X4X4X4X4X4X4X4X4X4X4X4X4X4X",
"4X4X4Xs s s a y y y v n n n n n N n n n n n n n n n n n n n n n m < :.0.G.D.8.Y 3 3 3 3 3 3 T 0.D.~.4X4X4X4X4X4X4X4X4X4X4X4X4X4X",
"4X4X4Xs s a s s s d b n n b v v v v v d z z z z z b n n n n n b k 3 :.9.t.r.T <.T T T T T T W R N.G.4X4X4X4X4X4X4X4X4X4X4X4X4X4X",
"4X4X4Xs s a c n n n n n n v s s d d a y y y y y y z n n n n b d k 3 :.8.8.:.< N.G.G.G.G./.G.T 3 E m.4X4X4X4X4X4X4X4X4X4X4X4X4X4X",
"4X2X2Xi.~ s c v v v v v v c s a i i i d d d d l d v d z z d l i f 3 L W T Y 3 1.B.1.1.<.q.M.P < V / 4X4X4X4X4X4X4X4X4X4X4X4X4X4X",
"4X4X4X4XOXb v s s s s d s s s u y y i n n n n n n z y y y y y y : 3 3 3 3 3 3 L 8.3 3 3 L 8.B 3 3 P 4X4X4X4X4X4X4X4X4X4X4X4X4X4X",
"4X4X4X4X@Xv c s s s s s s s a d d d l n n n n n n b z d y y d v f , 3 3 3 3 3 B V 3 3 3 B V B 3 < 4 ` Y.4X4X4X4X4X4X4X4X4X4X4X4X",
"4X4X4X4XOXs s s s s d s s a y v n N n N n n n n n n b d y y d n < # < 3 3 3 3 3 3 < 3 3 3 3 < 3 $ ; n ] 4X4X4X4X4X4X4X4X4X4X4X4X",
"4X4X4X4X Xa a s s s a u v v c c d c d d z z c d d d d y u z b b : + $ & & , 3 3 3 3 3 3 3 3 , & $ ; d _ ` #X4X4X4X4X4X4X4X4X4X4X",
"4X4X4X4X Xy a s s a a a n n n c s s s s s s s s y y y y i v n n ; + @ # # > < < < < 3 3 3 3 > # # ; s c n +X3X4X4X4X4X4X4X4X4X4X",
"4X4X4X4X2X X~ s a a c v n b d s s s a a y a y a y (  X!.t.M l n x p @ + # # $ > $ $ $ $ $ $ $ # + ; s v n +X<XG.G.G.oX4X4X4X4X4X",
"4X4X4X4X2X4Xi.p a a b n n v s s s s a y y y a y y ^ 4X~.N.m z n v x @ . # # # # # # # # # # # # . ; s v n +X>XG.G.G.oX4X4X4X4X4X",
"4X4X4X4X4X4Xi.b b c c x d s y a a a a y y y b.OX X!.G.G.Z...w z c b g : + + + + + + + + + + + + : a u z N +X>XG.G.G.oX4X4X4X4X4X",
"4X4X4X4X4X4Xi.n n n x s s a y 2 y y y y y y P.4X4XXXG.G.Z.#.} g c n d f . . . . . . . . . . . . p s u z N .X<XG.G.G.oX4X4X4X4X4X",
"4X4X4X4XOXs c d d c a a a y y i. X X X X XOX,X>XF.F.G.0.1.3.,.q 0 d s s p f | ..Z } | | | | 6 2 y g E w.t.D.G.G.S.0.~.4X4X4X4X4X",
"4X4X4X4XOXs s s s a a y h h h L.4X4X4X4X4X4X>X&XG.D.S.0.8.8.3.$.w h h h g B O.4.&...+.O.X.o.5 f g j 8.M.D.G.G.D.B.q.~.4X4X4X4X4X",
"4X4X4X4XOXs s s a y y y  X X X;X4X4X4X4X4X4XG.G.G.r.8.8.8.8.n.$Xa.| } } } ..-.*.&.&.*.O.o.o. .w R E 8.0.w.G.G.r.C.<X>X4X4X4X4X4X",
"4X4X4X XL.s s a a y g h 2X4X4X4X4X4X4X4X3X>XG.D.B.r.8.9.q.q.Z.4Xp.{ X.X.o.+.;.=.=.=.*.O.o.o.X.$.1.9.8.8.8.D.S.r.I.4X4X4X4X4X4X4X",
"4X4X2Xp y a y a y p L. X4X4X4X4X4X4X4X4XXXG.G.S.8.8.8.~.*X<X>X4Xp.{ X.o.o.+.;.;.;.=.*.O.o.o.W.=X>X~.8.8.8.0.N.@X>X4X4X4X4X4X4X4X",
"4X4X4XD j y y y j D @X4X4X4X4X^.!.!.~.&X!.G.G.D.N.N.N.+X4X4X4X4Xp.{ X.o.o.O.>.-.;.%.%.O.X.X.E.4X4X@Xm.m.m.m.C.3X4X4X4X4X4X4X4X4X",
"4X4X4X4X Xy y y J.4X4X4X4X4X4X7.*.A 5./.G.G.G.!.3X4X4X4X4X4X4X4Xp.| X.o.o.o.o.>.;.o.o.o.X.{ R.4X4X4X4X4X4X4X4X4X4X4X4X4X4X4X4X4X",
"4X4X4X4X#XH H H P.4X4X4X4X4X4Xt.6.S 5.A.D.G.G.!.3X4X4X4X4X4X4X4Xp.{ X.o.o.o.o.@.>.o.o.o.X.{ R.4X4X4X4X4X4X4X4X4X4X4X4X4X4X4X4X4X",
"4X4X4X4X4X4X4X4X4X4X4X4X4X4X4X4X&X&.&.A 7.G.G.!.3X4X4X4X4X4X4X4Xp.{ X.o.o.o.o.o.o.o.o.o.X.{ R.4X4X4X4X4X4X4X4X4X4X4X4X4X4X4X4X4X",
"4X4X4X4X4X4X4X4X4X4X4X4X4X4X4X#X|.r.r.S 7.t.!.~.3X4X4X4X4X4X4X4Xa.q } } }  .o.o.o.o.o.o. .q ,.v.<X4X4X4X4X4X4X4X4X4X4X4X4X4X4X4X",
"4X4X4X4X4X4X4X4X4X4X4X4X4X4X4X].R.[.Q.&.S A ^.4X4X4X4X4X4X4X3X3X^ y y y y 6 o.o.o.o.o.o.w y l n +X4X4X4X4X4X4X4X4X4X4X4X4X4X4X4X",
"4X4X4X4X4X4X4X4X4X4X4X4X4X:X{.'.`.`.Q.7.5.A ^.4X4X4X4X4X4X4X+Xv.J a y a y 4 } } } } } } 0 a d n w.Y.4X4X4X4X4X4X4X4X4X4X4X4X4X4X",
"4X4X4X4X4X4X4X4X4X4X4X4X4X{.j.'.[.f.h.4XM.&.^.4X4X4X4X4X4X4XU.N v s s s s g y y y y y y f s d s b ) 4X4X4X4X4X4X4X4X4X4X4X4X4X4X",
"4X4X4X4X4X4X4X4X4X4X4X;X}.[.`.`.`.h.(.4X/.7.oX4X4X4X4X4X<XK.` n c s d s s a y y y y y y i d s s c n v.T.4X4X4X4X4X4X4X4X4X4X4X4X",
"4X4X4X4X4X4X4X4X4X4X4X:Xj.'.[.h.f.2X4X4X4X4X4X4X4X4X4X4X+XD v s s s s s y y y u y y y y a x s a s d N i.4X4X4X4X4X4X4X4X4X4X4X4X",
"4X4X4X4X4X4X4X4X4X2X'.`.'.`.h.`.}.2X4X4X4X4X4X4X4X4X4X4X@XM d s s a a g b.J.J.J.J.J.J.J.J a a a s s d i.2X2X4X4X4X4X4X4X4X4X4X4X",
"4X4X4X4X4X4X4X4X4X3X).(.[.(.d.{.4X4X4X4X4X4X4X4X4X4X4X4XOXM s s a y y h :X4X4X4X2X4X4X4X^ y p y s s p i.4X4X4X4X4X4X4X4X4X4X4X4X",
"4X4X4X4X4X4X4X4X|.].'.[.h.`.{.;X4X4X4X4X4X4X4X4X4X4X4X~ D g s a J J.J.L.3X2X4X4X4X4X4X4X|.J.J.i.h a d m D OX2X4X4X4X4X4X4X4X4X4X",
"4X4X4X4X4X4X4X4X_.j.[.[.d.`.4X4X4X4X4X4X4X4X4X4X4X4X4XH a s a y ^ 4X4X4X4X4X4X4X4X4X4X4X4X4X2X Xh i x a p  X4X4X4X4X4X4X4X4X4X4X",
"4X4X4X4X4X4X4X4Xj.g.h.h.{.-X4X4X4X4X4X4X4X4X4X4X2Xf.t = % - 0 J..X4X4X4X4X4X4X4X4X4X4X4X4X4X4X<XL./ - @ % t y.;X4X4X4X4X4X4X4X4X",
"4X4X4X4X4X4X4X4Xh.d.d.d.4X4X4X4X4X4X4X4X4X4X4X4X2Xl.8 7 o 7 e 4X4X4X4X4X4X4X4X4X4X4X4X4X4X4X4X4X2Xg.7 o 7 7 9 :X4X4X4X2X4X4X4X4X",
"4X4X4X;X;X;X;X;X}.{.{.{.;X;X;X;X;X;X;X;X;X;X;X;X;Xu.7 7 o o 9 ;X;X;X;X;X;X;X;X;X;X;X;X;X;X;X;X;X;Xg.o o 7 7 7 8 y.;X;X;X;X;X4X4X",
"4X4X4X;X;X;X;X;X;X;X;X;X;X;X;X;X;X;X;X;X;X;X;X;X;Xy.o o o o 9 ;X;X;X;X;X;X;X;X;X;X;X;X;X;X;X;X;X:Xg.o o o o 7 8 r ;X;X;X;X;X4X4X",
"4X4X4X2X2X2X2X2X2X2X2X2X2X2X2X4X2X2X2X2X2X2X2X2X2X{.(.(._.(.'.2X2X2X2X2X2X2X2X2X2X2X2X2X2X2X2X2X2X-X(.(.(.(.(.].{.2X2X2X4X4X4X4X",
"4X4X4X4X4X4X4X4X4X4X4X4X4X4X4X4X4X4X4X4X4X4X4X4X4X4X4X4X4X4X4X4X4X4X4X4X4X4X4X4X4X4X4X4X4X4X4X4X4X4X4X4X4X4X4X4X4X4X4X4X4X4X4X4X",
"4X4X4X4X4X4X4X4X4X4X4X4X4X4X4X4X4X4X4X4X4X4X4X4X4X4X4X4X4X4X4X4X4X4X4X4X4X4X4X4X4X4X4X4X4X4X4X4X4X4X4X4X4X4X4X4X4X4X4X4X4X4X4X4X",
"4X4X4X4X4X4X4X4X4X4X4X4X4X4X4X4X4X4X4X4X4X4X4X4X4X4X4X4X4X4X4X4X4X4X4X4X4X4X4X4X4X4X4X4X4X4X4X4X4X4X4X4X4X4X4X4X4X4X4X4X4X4X4X4X"
};
